<?xml version="1.0" encoding="iso-8859-1"?>
<!-- Generator: Adobe Illustrator 19.0.0, SVG Export Plug-In . SVG Version: 6.00 Build 0)  -->
<svg version="1.1" id="Capa_1" xmlns="http://www.w3.org/2000/svg" xmlns:xlink="http://www.w3.org/1999/xlink" x="0px" y="0px"
	 viewBox="0 0 401.764 401.764" style="enable-background:new 0 0 401.764 401.764;" xml:space="preserve">
<g>
	<g>
		<g>
			<path d="M243.089,264.964h-26.8v-28.8c0-5.2-2.4-10-5.6-13.2c-3.6-3.6-8-5.6-13.2-5.6h-79.2c-4.8,0-9.6,2-12.8,5.2
				c-3.6,3.6-5.6,8-5.6,13.2v28.8h-26.8c-7.6,0-14.4,3.2-19.2,8c-4.8,4.8-8,11.6-8,19.2v82.8c0,7.6,3.2,14.4,8,19.2s11.6,8,19.2,8
				h170c7.6,0,14.4-3.2,19.2-8s8-11.6,8-19.2v-82.4c0-7.6-3.2-14.4-8-19.2S250.689,264.964,243.089,264.964z M113.889,235.764
				c0-1.2,0.4-2.4,1.2-3.2s2-1.2,3.2-1.2h79.2c1.2,0,2.4,0.4,3.6,1.2c0.8,0.8,1.2,2,1.2,3.2v28.8h-88.4V235.764z M59.889,291.764
				c0-3.6,1.6-6.8,4-9.2c2.4-2.4,5.6-4,9.2-4h170c3.6,0,6.8,1.6,9.2,4c1.2,0.8,2,2.4,2.8,3.6c-14,2.8-32.8,9.2-53.6,16.4
				c-56.8,19.2-129.2,44-141.6,12V291.764z M256.289,374.164c0,3.6-1.6,6.8-4,9.2c-2.4,2.4-5.6,4-9.2,4h-170c-3.6,0-7.2-1.6-9.2-4
				c-2.4-2.4-4-5.6-4-9.2v-38.4c29.6,19.2,94-2.8,146-20.4c19.6-6.8,37.6-12.8,50.4-15.6V374.164z"/>
			<path d="M353.889,2.164c-2-2-5.2-2.8-7.6-1.6c-28,8.4-59.6,22.8-87.6,40.4c-14,8.8-26.8,18.4-38.4,28.4c-1.6,0.8-2.4,1.6-3.2,2.8
				c-7.2,6.8-14,14-19.6,21.2c-15.2,19.6-22.4,40.4-16.4,60.8c0.8,2.8,2,5.6,3.2,8l-31.6,31.6c-2.8,2.8-2.8,7.2,0,10
				c2.8,2.8,7.2,2.8,10,0l31.6-31.6c2.8,1.2,5.2,2.4,8,3.2c20,6.4,40.8-0.8,60.8-16.4c7.2-5.6,14.4-12,21.2-19.6
				c1.2-0.8,2.4-2,2.8-3.2c10-11.2,19.6-24.4,28-38.8c17.6-28,32-59.6,40.4-87.6C356.289,7.364,355.889,4.164,353.889,2.164z
				 M322.289,24.964l-45.2,45.2l-2.8-21.2C289.889,39.764,306.289,31.364,322.289,24.964z M261.089,56.964l3.6,25.6l-29.2,29.2
				l-4.4-32.4C239.889,71.764,250.289,64.164,261.089,56.964z M195.489,152.164c0-0.4-0.4-0.8-0.4-1.2c-4.8-15.2,1.2-32,14-48.4
				c2.8-3.6,6-7.6,9.6-11.2l4.8,32.8L195.489,152.164z M254.689,148.164c-16.4,12.4-33.2,18.8-48.4,14c-0.4,0-0.8-0.4-1.2-0.4l28-28
				l32.8,4.8C262.289,142.164,258.689,145.364,254.689,148.164z M277.889,125.764l-32.4-4.4l29.2-29.2l25.6,3.6
				C293.089,106.564,285.489,116.964,277.889,125.764z M308.289,82.964l-21.2-2.8l45.2-45.6
				C325.889,50.564,317.489,67.364,308.289,82.964z"/>
		</g>
	</g>
</g>
<g>
</g>
<g>
</g>
<g>
</g>
<g>
</g>
<g>
</g>
<g>
</g>
<g>
</g>
<g>
</g>
<g>
</g>
<g>
</g>
<g>
</g>
<g>
</g>
<g>
</g>
<g>
</g>
<g>
</g>
</svg>
